<?xml version="1.0" encoding="UTF-8" standalone="no"?>
<svg
   height="207.76962mm"
   id="svg209"
   inkscape:version="1.1.2 (0a00cf5339, 2022-02-04, custom)"
   sodipodi:docname="logo_gradient_nonstop.svg"
   version="1.1"
   viewBox="0 0 200.28691 207.76962"
   width="200.28691mm"
   inkscape:export-filename="/home/arthurdent/Documents/logo_gradient_nonstop.png"
   inkscape:export-xdpi="203.2"
   inkscape:export-ydpi="203.2"
   xmlns:inkscape="http://www.inkscape.org/namespaces/inkscape"
   xmlns:sodipodi="http://sodipodi.sourceforge.net/DTD/sodipodi-0.dtd"
   xmlns:xlink="http://www.w3.org/1999/xlink"
   xmlns="http://www.w3.org/2000/svg"
   xmlns:svg="http://www.w3.org/2000/svg"
   xmlns:rdf="http://www.w3.org/1999/02/22-rdf-syntax-ns#"
   xmlns:cc="http://creativecommons.org/ns#"
   xmlns:dc="http://purl.org/dc/elements/1.1/">
  <defs
     id="defs203">
    <linearGradient
       id="linearGradient6519"
       inkscape:collect="always">
      <stop
         id="stop6515"
         offset="0"
         style="stop-color:#434c5e;stop-opacity:1" />
      <stop
         id="stop6517"
         offset="1"
         style="stop-color:#5e81ac;stop-opacity:1" />
    </linearGradient>
    <linearGradient
       gradientUnits="userSpaceOnUse"
       id="linearGradient968"
       inkscape:collect="always"
       x1="9.0591345"
       x2="208.91815"
       xlink:href="#linearGradient6519"
       y1="236.77051"
       y2="29.780874"
       gradientTransform="translate(-1.9610659,4.0685799)">
      <stop
         id="stop5"
         offset="0"
         style="stop-color:#434c5e;stop-opacity:1" />
      <stop
         id="stop7"
         offset="1"
         style="stop-color:#5e81ac;stop-opacity:1" />
    </linearGradient>
    <linearGradient
       gradientUnits="userSpaceOnUse"
       id="linearGradient6078"
       inkscape:collect="always"
       x1="9.0591345"
       x2="208.91815"
       xlink:href="#linearGradient6519"
       y1="236.77051"
       y2="29.780874"
       gradientTransform="translate(-1.9610659,4.0685799)">
      <stop
         id="stop10"
         offset="0"
         style="stop-color:#434c5e;stop-opacity:1" />
      <stop
         id="stop12"
         offset="1"
         style="stop-color:#5e81ac;stop-opacity:1" />
    </linearGradient>
  </defs>
  <sodipodi:namedview
     bordercolor="#666666"
     borderopacity="1.0"
     id="base"
     inkscape:current-layer="layer2"
     inkscape:cx="563.16004"
     inkscape:cy="545.48237"
     inkscape:document-rotation="0"
     inkscape:document-units="mm"
     inkscape:pagecheckerboard="0"
     inkscape:pageopacity="0.0"
     inkscape:pageshadow="2"
     inkscape:window-height="1413"
     inkscape:window-maximized="1"
     inkscape:window-width="2560"
     inkscape:window-x="0"
     inkscape:window-y="0"
     inkscape:zoom="0.98994949"
     pagecolor="#ffffff"
     showgrid="false">
    <inkscape:grid
       type="xygrid"
       id="grid4261" />
  </sodipodi:namedview>
  <metadata
     id="metadata206">
    <rdf:RDF>
      <cc:Work
         rdf:about="">
        <dc:format>image/svg+xml</dc:format>
        <dc:type
           rdf:resource="http://purl.org/dc/dcmitype/StillImage" />
      </cc:Work>
    </rdf:RDF>
  </metadata>
  <g
     inkscape:groupmode="layer"
     id="layer2"
     inkscape:label="Export">
    <rect
       style="fill:#5e81ac;fill-opacity:0.0156863;stroke-width:0.264583"
       id="rect4225"
       width="256"
       height="256"
       x="-29.618567"
       y="-20.216303" />
  </g>
  <g
     id="layer1"
     inkscape:groupmode="layer"
     inkscape:label="Path"
     transform="translate(-8.5529357,-29.412334)">
    <path
       d="m 79.67409,240.91109 c -5.54141,-0.77748 -12.293493,-11.86894 -3.891626,-14.62936 3.279714,-0.86948 5.188585,-1.37513 6.72576,-2.55082 1.159069,-0.8865 1.346253,-2.53474 -0.298866,-4.15794 -1.5829,-4.69369 2.528516,-10.73988 3.461216,-3.28959 5.27023,-1.87898 3.45362,7.09403 8.16957,5.34345 5.03402,-0.75409 0.0505,-10.01991 5.99142,-8.5887 1.476576,4.06547 -4.282893,9.04826 -0.33751,13.31974 5.165646,2.53071 12.837186,12.38781 2.596436,11.92297 -7.429046,0.2757 -15.00234,2.36533 -22.4164,2.63025 z M 10.782134,131.19621 C 6.5880744,130.59323 6.5927479,130.23768 7.5516464,124.13957 10.776649,107.0152 18.507754,91.34906 28.552744,77.44805 c 10.19105,-13.339 23.52889,-24.59314 38.87138,-31.66807 10.27149,-5.25118 21.55737,-8.33596 32.843076,-10.71677 19.03115,-2.97179 39.24551,-2.13048 57.04031,5.74379 16.71817,6.74734 31.80525,17.47862 43.70119,30.98038 2.96253,3.472865 6.29949,6.5987 5.77675,11.00165 -2.76546,0.509512 -3.5415,-0.860453 -7.82609,-4.25786 -7.39775,-6.41405 -15.45859,-11.9871 -24.85524,-15.15446 -28.12689,-11.92325 -60.84186,-7.96324 -88.300266,4.02475 -25.47913,11.55585 -45.14122,32.59693 -61.62338,54.69071 -3.31264,4.26929 -7.24054,9.82078 -13.39834,9.10404 z M 190.31778,61.9365 c -0.23424,-0.33656 -0.17217,0.1633 0,0 z"
       id="path189"
       sodipodi:nodetypes="ccscccccccccccccccccccccc"
       style="mix-blend-mode:darken;fill:url(#linearGradient6078);fill-opacity:1;stroke:url(#linearGradient968);stroke-width:0.0846667" />
  </g>
</svg>
